inDegrees=no
num_controls=7
num_derivatives=13
num_iterations=121
num_multipliers=7
num_parameters=0
num_slacks=7
num_states=26
objective=0.497104
objective_accelerations=0.032463
objective_balance=0.003295
objective_effort=0.035111
objective_height=0.420732
objective_ligament=0.005504
solver_duration=1385.279263
status=Solve_Succeeded
success=true
DataType=double
version=3
OpenSimVersion=4.5
endheader
time	/jointset/ground_pelvis/pelvis_tilt/value	/jointset/ground_pelvis/pelvis_tx/value	/jointset/ground_pelvis/pelvis_ty/value	/jointset/hip_r/hip_flexion_r/value	/jointset/hip_r/hip_adduction_r/value	/jointset/hip_r/hip_rotation_r/value	/jointset/back/lumbar_extension/value	/jointset/patellofemoral_r/patellar_flexion_r/value	/jointset/knee_r/knee_flexion_r/value	/jointset/knee_r/knee_adduction_r/value	/jointset/knee_r/knee_rotation_r/value	/jointset/ankle_r/ankle_angle_r/value	/jointset/subtalar_r/subtalar_angle_r/value	/jointset/ground_pelvis/pelvis_tilt/speed	/jointset/ground_pelvis/pelvis_tx/speed	/jointset/ground_pelvis/pelvis_ty/speed	/jointset/hip_r/hip_flexion_r/speed	/jointset/hip_r/hip_adduction_r/speed	/jointset/hip_r/hip_rotation_r/speed	/jointset/back/lumbar_extension/speed	/jointset/patellofemoral_r/patellar_flexion_r/speed	/jointset/knee_r/knee_flexion_r/speed	/jointset/knee_r/knee_adduction_r/speed	/jointset/knee_r/knee_rotation_r/speed	/jointset/ankle_r/ankle_angle_r/speed	/jointset/subtalar_r/subtalar_angle_r/speed	/forceset/tau_hip_flexion_r	/forceset/tau_hip_adduction_r	/forceset/tau_hip_rotation_r	/forceset/tau_knee_flexion_r	/forceset/tau_ankle_angle_r	/forceset/tau_subtalar_angle_r	/forceset/tau_lumbar_extension	lambda_cid13_p0	lambda_cid14_p0	lambda_cid14_p1	lambda_cid14_p2	lambda_cid14_p3	lambda_cid14_p4	lambda_cid14_p5	/jointset/ground_pelvis/pelvis_tilt/accel	/jointset/ground_pelvis/pelvis_tx/accel	/jointset/ground_pelvis/pelvis_ty/accel	/jointset/hip_r/hip_flexion_r/accel	/jointset/hip_r/hip_adduction_r/accel	/jointset/hip_r/hip_rotation_r/accel	/jointset/back/lumbar_extension/accel	/jointset/patellofemoral_r/patellar_flexion_r/accel	/jointset/knee_r/knee_flexion_r/accel	/jointset/knee_r/knee_adduction_r/accel	/jointset/knee_r/knee_rotation_r/accel	/jointset/ankle_r/ankle_angle_r/accel	/jointset/subtalar_r/subtalar_angle_r/accel	gamma_cid13_p0	gamma_cid14_p0	gamma_cid14_p1	gamma_cid14_p2	gamma_cid14_p3	gamma_cid14_p4	gamma_cid14_p5
0.5	-0.09749981091196484	0.05125856655264843	0.8631261091259823	0.6945424311037853	-0.2301789556254728	-0.1327151493263463	-0.3179648926786073	0.6898744499077137	0.6898744499076794	0.04126161760609251	0.1743956014282906	0.2638188379233508	0.0566155486230604	-0.260699028159027	-0.09043900029119624	-0.3276216824731674	1.406635102856458	-0.00822330017325665	0.2570599910003684	-0.6002077716104148	1.667293730913721	1.667293730913715	-0.2781140439074172	-0.0006004053038572755	0.6107057914781848	0.1634293821056969	-0.07519340686377976	-0.01868928102550443	0.008369374475024113	-0.3409382598211894	0.06376332900942093	-0.01033103501207508	0.1353870292291708	-31.90461391848933	-21.7668281710958	-4.39801182651963	-3.293572840426929	3.465624463498878	-670.9790469798569	59.93206923417209	0.06410115836466644	0.2826983945378785	-0.3419701459036871	-0.8760856656019744	-0.05360691313940415	-0.5500214013076647	1.322424341019453	-1.158839965620023	-1.15883996562003	0.3987847000101834	-0.0007982072047682761	-0.4785132441676209	-0.06798881800014245	-1.083514267366489e-07	-1.568230942890054e-07	5.126451940058572e-07	-1.231936245997161e-06	4.158451183462079e-08	-2.096676273163741e-07	8.269947542201822e-07
0.51	-0.1001031474620047	0.05036842442789986	0.8598335235796616	0.7085627608359215	-0.2302645982850913	-0.1301709862045113	-0.3239001515662113	0.7064869457857992	0.706486945785795	0.03850272389898524	0.1743895145989092	0.2699008484003912	0.05824509553916066	-0.2599315523703617	-0.08757992630723245	-0.3308212338462441	1.397237060535462	-0.008907024905597532	0.2517790480504376	-0.5867663830711471	1.65497103725915	1.654971037259124	-0.273633684888332	-0.0006212531913218165	0.6056119946723719	0.1624488667145493	-0.08044476070721567	-0.01687949806354957	0.009030063224882872	-0.3437668011099244	0.05952780974975413	-0.009760171602321989	0.1402174885357766	-30.95299869129649	-23.26921049170002	-4.532496784184081	-3.135800146541496	4.062387108426772	-674.1653494353769	59.70131711059123	0.08856746212377112	0.2889460191934848	-0.2978612485074036	-1.000748107579411	-0.07618817822558648	-0.5163495497430411	1.366639536435457	-1.304124272658067	-1.304124272661269	0.4773178832143411	-0.003587213901149384	-0.5374681518169359	-0.1178223861304846	-9.051426398933681e-08	-1.10285801227685e-07	5.876002104601858e-07	-8.820129447698448e-07	4.900494263392845e-09	-1.592721534959338e-07	7.20614756204508e-07
0.52	-0.1026977099195604	0.04950715986676425	0.8565111597965105	0.7224832932263989	-0.2303571647770208	-0.1276794762737577	-0.3296986678832121	0.7229691866858791	0.7229691866859125	0.03578956505814105	0.1743830474637768	0.2759293898587675	0.05986388940405776	-0.2589442096614297	-0.0846634875686033	-0.3335773298392167	1.386675634525226	-0.009608066635704801	0.2465293527842165	-0.5728592574896656	1.641242735313281	1.641242735313233	-0.2689670706549807	-0.0006764664541406052	0.6000119877454055	0.1612787718650644	-0.08569611455064954	-0.01506971510159606	0.009690751974753053	-0.3465953423986587	0.05529229049008749	-0.009189308192571086	0.145047947842384	-29.99376400673962	-24.77590239834921	-4.665273792318873	-2.981113273158427	4.645355992164435	-677.4244127635218	59.53322242147442	0.1080745424181396	0.2941713454708381	-0.2532790698828663	-1.108762403450032	-0.05707031269267209	-0.5437718645657228	1.415571749462251	-1.439961623879555	-1.439961623879551	0.4360357428633991	-0.007671282275615767	-0.5797552683984103	-0.1059047096676546	-6.21643671246868e-08	-1.670493289963428e-08	8.179538475624249e-07	-1.972051215155926e-07	-7.981915359633525e-08	-5.11524711391061e-08	5.698792262663218e-07
0.53	-0.1052814387778603	0.04867531300590013	0.8531634721669618	0.7362927235096507	-0.2304563418507954	-0.1252422434087117	-0.3353558068530426	0.7393073144515433	0.739307314451549	0.03312187848399116	0.1743768798310088	0.2818996232117182	0.06147076714888605	-0.2577653761269236	-0.08169822557757152	-0.3358821234599981	1.375017844749445	-0.01023622614318018	0.2409579102869137	-0.5585067301900621	1.626153369812745	1.626153369812741	-0.2645082118388566	-0.0005803438751770479	0.5939521298978664	0.1600546602854097	-0.09071413773904782	-0.01346622220341314	0.01036965619451372	-0.3497493210794089	0.05146874116459529	-0.008716825766629108	0.149690620243871	-29.02860650673223	-26.16015299123125	-4.825340885196113	-2.815220062060112	5.166916184916093	-680.7432776311317	59.37723574186144	0.1282172044712824	0.2988276159461341	-0.2073674890854817	-1.223170646524415	-0.06691704934753695	-0.5577694668348636	1.454364163327559	-1.577831759345789	-1.577831759339155	0.4602554059981026	0.01480708123939354	-0.6315089900171904	-0.1368152119081544	-3.561737620489439e-08	6.971433746889977e-08	1.038903796266718e-06	4.336772960350679e-07	-1.590238606099931e-07	4.537002235160812e-08	4.557465480540311e-07
0.54	-0.1078522934117183	0.04787334356295144	0.8497950790050234	0.7499797992187657	-0.2305620461755591	-0.1228595127735429	-0.340867566361254	0.7554876670129593	0.7554876670129437	0.03050066938900397	0.1743709840346793	0.2878067763967761	0.06306417361195901	-0.2563693647722274	-0.07868800398551402	-0.337718436317152	1.362204719698373	-0.0109135168335587	0.2356289068087191	-0.5437833651657198	1.609687694464004	1.609687694464045	-0.2596715748222854	-0.0006220991659313354	0.587395954166905	0.1585845155140033	-0.09573216092744274	-0.01186272930522927	0.01104856041424987	-0.3529032997601572	0.04764519183910474	-0.008244343340683887	0.1543332926453601	-28.0582905529385	-27.55072678900397	-4.985979462759861	-2.649846949163248	5.689268747722038	-684.1597888493992	59.24156814840889	0.1515101064562852	0.3031632656758775	-0.1595829171573576	-1.339829458508117	-0.0668965492732936	-0.495284060744098	1.489739294410061	-1.715223593520313	-1.715223593520325	0.5115913829528247	-0.03524685621918383	-0.6790188450829892	-0.1551113480180337	-1.106508973473167e-08	1.482101377545643e-07	1.249449664190304e-06	1.00489756259452e-06	-2.321269309428925e-07	1.290615834798136e-07	3.821106419640081e-07
0.55	-0.1104082391591481	0.04710166601335411	0.8464106683366678	0.7635333175082146	-0.2306742759612944	-0.1205310574648119	-0.3462302044279706	0.7714967085106651	0.7714967085106464	0.02792734877355055	0.1743651103264049	0.2936461281888335	0.06464241794402466	-0.2547859940470226	-0.07564215128360464	-0.3390835690933293	1.348315582721911	-0.01153675687463981	0.2300822197600014	-0.5286907554225219	1.591903095116954	1.591903095117019	-0.2549546907677279	-0.0005642084964978001	0.5803994057711432	0.1570297256288206	-0.1005994068856525	-0.010284345279013	0.01164533226736357	-0.3561277549975488	0.0439934263119422	-0.007787635207214736	0.1588414120496479	-27.08389160644023	-28.88616803988023	-5.144902266618375	-2.483507173500166	6.181620071158159	-687.5511431235557	59.11698046934949	0.166833306163285	0.3060450694501634	-0.1129242764681908	-1.44093846168542	-0.06036158270432558	-0.58128367021085	1.52704572769315	-1.842705064609932	-1.842705064606295	0.4576604876355758	0.02484132785223397	-0.7212610134561818	-0.1604872048400056	4.042111880069093e-09	1.936551477140018e-07	1.366030716757132e-06	1.330719642906296e-06	-2.742268372799265e-07	1.770649364573381e-07	3.530642888663989e-07
